<?xml version="1.0" encoding="UTF-8" standalone="no"?>
<!DOCTYPE svg PUBLIC "-//W3C//DTD SVG 1.1//EN"
 "http://www.w3.org/Graphics/SVG/1.1/DTD/svg11.dtd">
<!-- Generated by graphviz version 2.43.0 (0)
 -->
<!-- Title: snakemake_dag Pages: 1 -->
<svg width="1036pt" height="228pt"
 viewBox="0.00 0.00 1036.00 228.00" xmlns="http://www.w3.org/2000/svg" xmlns:xlink="http://www.w3.org/1999/xlink">
<g id="graph0" class="graph" transform="scale(1 1) rotate(0) translate(4 224)">
<title>snakemake_dag</title>
<polygon fill="white" stroke="transparent" points="-4,4 -4,-224 1032,-224 1032,4 -4,4"/>
<g id="clust1" class="cluster">
<title>cluster_0</title>
<path fill="white" stroke="black" stroke-width="2" d="M20,-110C20,-110 172,-110 172,-110 178,-110 184,-116 184,-122 184,-122 184,-173 184,-173 184,-179 178,-185 172,-185 172,-185 20,-185 20,-185 14,-185 8,-179 8,-173 8,-173 8,-122 8,-122 8,-116 14,-110 20,-110"/>
<text text-anchor="middle" x="96" y="-173" font-family="sans" font-size="10.00">Input</text>
</g>
<g id="clust2" class="cluster">
<title>cluster_1</title>
<path fill="white" stroke="black" stroke-width="2" d="M116,-35C116,-35 166,-35 166,-35 172,-35 178,-41 178,-47 178,-47 178,-98 178,-98 178,-104 172,-110 166,-110 166,-110 116,-110 116,-110 110,-110 104,-104 104,-98 104,-98 104,-47 104,-47 104,-41 110,-35 116,-35"/>
<text text-anchor="middle" x="141" y="-98" font-family="sans" font-size="10.00">Preprocess</text>
</g>
<g id="clust3" class="cluster">
<title>cluster_2</title>
<path fill="white" stroke="black" stroke-width="2" d="M212,-83C212,-83 518,-83 518,-83 524,-83 530,-89 530,-95 530,-95 530,-146 530,-146 530,-152 524,-158 518,-158 518,-158 212,-158 212,-158 206,-158 200,-152 200,-146 200,-146 200,-95 200,-95 200,-89 206,-83 212,-83"/>
<text text-anchor="middle" x="365" y="-146" font-family="sans" font-size="10.00">Align</text>
</g>
<g id="clust4" class="cluster">
<title>cluster_3</title>
<path fill="white" stroke="black" stroke-width="2" d="M558,-83C558,-83 912,-83 912,-83 918,-83 924,-89 924,-95 924,-95 924,-146 924,-146 924,-152 918,-158 912,-158 912,-158 558,-158 558,-158 552,-158 546,-152 546,-146 546,-146 546,-95 546,-95 546,-89 552,-83 558,-83"/>
<text text-anchor="middle" x="735" y="-146" font-family="sans" font-size="10.00">Genotype</text>
</g>
<g id="clust5" class="cluster">
<title>cluster_4</title>
<path fill="white" stroke="black" stroke-width="2" d="M955,-83C955,-83 1005,-83 1005,-83 1011,-83 1017,-89 1017,-95 1017,-95 1017,-200 1017,-200 1017,-206 1011,-212 1005,-212 1005,-212 955,-212 955,-212 949,-212 943,-206 943,-200 943,-200 943,-95 943,-95 943,-89 949,-83 955,-83"/>
<text text-anchor="middle" x="980" y="-200" font-family="sans" font-size="10.00">Annotate</text>
</g>
<g id="clust6" class="cluster">
<title>cluster_5</title>
<path fill="white" stroke="black" stroke-width="2" d="M952,-8C952,-8 1008,-8 1008,-8 1014,-8 1020,-14 1020,-20 1020,-20 1020,-71 1020,-71 1020,-77 1014,-83 1008,-83 1008,-83 952,-83 952,-83 946,-83 940,-77 940,-71 940,-71 940,-20 940,-20 940,-14 946,-8 952,-8"/>
<text text-anchor="middle" x="980" y="-71" font-family="sans" font-size="10.00">Swaps</text>
</g>
<!-- reference -->
<g id="node1" class="node">
<title>reference</title>
<path fill="none" stroke="#56d86b" stroke-width="2" d="M162,-156C162,-156 120,-156 120,-156 114,-156 108,-150 108,-144 108,-144 108,-132 108,-132 108,-126 114,-120 120,-120 120,-120 162,-120 162,-120 168,-120 174,-126 174,-132 174,-132 174,-144 174,-144 174,-150 168,-156 162,-156"/>
<text text-anchor="middle" x="141" y="-141" font-family="sans" font-size="10.00">Reference</text>
<text text-anchor="middle" x="141" y="-130" font-family="sans" font-size="10.00">Genome</text>
</g>
<!-- bwa_mem2 -->
<g id="node4" class="node">
<title>bwa_mem2</title>
<path fill="none" stroke="#56d892" stroke-width="2" d="M271,-129C271,-129 222,-129 222,-129 216,-129 210,-123 210,-117 210,-117 210,-105 210,-105 210,-99 216,-93 222,-93 222,-93 271,-93 271,-93 277,-93 283,-99 283,-105 283,-105 283,-117 283,-117 283,-123 277,-129 271,-129"/>
<text text-anchor="middle" x="246.5" y="-108.5" font-family="sans" font-size="10.00">BWA&#45;MEM2</text>
</g>
<!-- reference&#45;&gt;bwa_mem2 -->
<g id="edge2" class="edge">
<title>reference&#45;&gt;bwa_mem2</title>
<path fill="none" stroke="grey" stroke-width="2" d="M174.18,-129.61C182.37,-127.47 191.33,-125.13 200.05,-122.86"/>
<polygon fill="grey" stroke="grey" stroke-width="2" points="200.94,-126.24 209.73,-120.33 199.17,-119.47 200.94,-126.24"/>
</g>
<!-- fastq -->
<g id="node2" class="node">
<title>fastq</title>
<path fill="none" stroke="#56d873" stroke-width="2" d="M60,-156C60,-156 30,-156 30,-156 24,-156 18,-150 18,-144 18,-144 18,-132 18,-132 18,-126 24,-120 30,-120 30,-120 60,-120 60,-120 66,-120 72,-126 72,-132 72,-132 72,-144 72,-144 72,-150 66,-156 60,-156"/>
<text text-anchor="middle" x="45" y="-141" font-family="sans" font-size="10.00">FASTQ</text>
<text text-anchor="middle" x="45" y="-130" font-family="sans" font-size="10.00">reads</text>
</g>
<!-- fastp -->
<g id="node3" class="node">
<title>fastp</title>
<path fill="none" stroke="#56d892" stroke-width="2" d="M156,-81C156,-81 126,-81 126,-81 120,-81 114,-75 114,-69 114,-69 114,-57 114,-57 114,-51 120,-45 126,-45 126,-45 156,-45 156,-45 162,-45 168,-51 168,-57 168,-57 168,-69 168,-69 168,-75 162,-81 156,-81"/>
<text text-anchor="middle" x="141" y="-60.5" font-family="sans" font-size="10.00">fastp</text>
</g>
<!-- fastq&#45;&gt;fastp -->
<g id="edge1" class="edge">
<title>fastq&#45;&gt;fastp</title>
<path fill="none" stroke="grey" stroke-width="2" d="M68.75,-119.84C80.9,-110.15 96.03,-98.08 109.21,-87.56"/>
<polygon fill="grey" stroke="grey" stroke-width="2" points="111.5,-90.22 117.13,-81.25 107.13,-84.75 111.5,-90.22"/>
</g>
<!-- fastp&#45;&gt;bwa_mem2 -->
<g id="edge3" class="edge">
<title>fastp&#45;&gt;bwa_mem2</title>
<path fill="none" stroke="grey" stroke-width="2" d="M168.12,-75.11C177.94,-79.67 189.42,-84.99 200.47,-90.12"/>
<polygon fill="grey" stroke="grey" stroke-width="2" points="199.07,-93.33 209.62,-94.36 202.02,-86.98 199.07,-93.33"/>
</g>
<!-- markduplicates -->
<g id="node5" class="node">
<title>markduplicates</title>
<path fill="none" stroke="#56d892" stroke-width="2" d="M400,-129C400,-129 331,-129 331,-129 325,-129 319,-123 319,-117 319,-117 319,-105 319,-105 319,-99 325,-93 331,-93 331,-93 400,-93 400,-93 406,-93 412,-99 412,-105 412,-105 412,-117 412,-117 412,-123 406,-129 400,-129"/>
<text text-anchor="middle" x="365.5" y="-108.5" font-family="sans" font-size="10.00">MarkDuplicates</text>
</g>
<!-- bwa_mem2&#45;&gt;markduplicates -->
<g id="edge4" class="edge">
<title>bwa_mem2&#45;&gt;markduplicates</title>
<path fill="none" stroke="grey" stroke-width="2" d="M283.24,-111C291.26,-111 299.95,-111 308.57,-111"/>
<polygon fill="grey" stroke="grey" stroke-width="2" points="308.61,-114.5 318.61,-111 308.61,-107.5 308.61,-114.5"/>
</g>
<!-- base_recalibrator -->
<g id="node6" class="node">
<title>base_recalibrator</title>
<path fill="none" stroke="#56d892" stroke-width="2" d="M508,-129C508,-129 460,-129 460,-129 454,-129 448,-123 448,-117 448,-117 448,-105 448,-105 448,-99 454,-93 460,-93 460,-93 508,-93 508,-93 514,-93 520,-99 520,-105 520,-105 520,-117 520,-117 520,-123 514,-129 508,-129"/>
<text text-anchor="middle" x="484" y="-108.5" font-family="sans" font-size="10.00">Recalibrate</text>
</g>
<!-- markduplicates&#45;&gt;base_recalibrator -->
<g id="edge5" class="edge">
<title>markduplicates&#45;&gt;base_recalibrator</title>
<path fill="none" stroke="grey" stroke-width="2" d="M412.21,-111C420.64,-111 429.44,-111 437.85,-111"/>
<polygon fill="grey" stroke="grey" stroke-width="2" points="437.87,-114.5 447.87,-111 437.87,-107.5 437.87,-114.5"/>
</g>
<!-- haplotype_caller -->
<g id="node7" class="node">
<title>haplotype_caller</title>
<path fill="none" stroke="#56d892" stroke-width="2" d="M639,-129C639,-129 568,-129 568,-129 562,-129 556,-123 556,-117 556,-117 556,-105 556,-105 556,-99 562,-93 568,-93 568,-93 639,-93 639,-93 645,-93 651,-99 651,-105 651,-105 651,-117 651,-117 651,-123 645,-129 639,-129"/>
<text text-anchor="middle" x="603.5" y="-108.5" font-family="sans" font-size="10.00">HaplotypeCaller</text>
</g>
<!-- base_recalibrator&#45;&gt;haplotype_caller -->
<g id="edge6" class="edge">
<title>base_recalibrator&#45;&gt;haplotype_caller</title>
<path fill="none" stroke="grey" stroke-width="2" d="M520.25,-111C528.32,-111 537.09,-111 545.8,-111"/>
<polygon fill="grey" stroke="grey" stroke-width="2" points="545.96,-114.5 555.96,-111 545.96,-107.5 545.96,-114.5"/>
</g>
<!-- genotype_gvcfs -->
<g id="node8" class="node">
<title>genotype_gvcfs</title>
<path fill="none" stroke="#56d892" stroke-width="2" d="M771,-129C771,-129 699,-129 699,-129 693,-129 687,-123 687,-117 687,-117 687,-105 687,-105 687,-99 693,-93 699,-93 699,-93 771,-93 771,-93 777,-93 783,-99 783,-105 783,-105 783,-117 783,-117 783,-123 777,-129 771,-129"/>
<text text-anchor="middle" x="735" y="-108.5" font-family="sans" font-size="10.00">GenotypeGVCFs</text>
</g>
<!-- haplotype_caller&#45;&gt;genotype_gvcfs -->
<g id="edge7" class="edge">
<title>haplotype_caller&#45;&gt;genotype_gvcfs</title>
<path fill="none" stroke="grey" stroke-width="2" d="M651.25,-111C659.49,-111 668.16,-111 676.65,-111"/>
<polygon fill="grey" stroke="grey" stroke-width="2" points="676.88,-114.5 686.88,-111 676.88,-107.5 676.88,-114.5"/>
</g>
<!-- filter -->
<g id="node9" class="node">
<title>filter</title>
<path fill="none" stroke="#56d892" stroke-width="2" d="M902,-129C902,-129 831,-129 831,-129 825,-129 819,-123 819,-117 819,-117 819,-105 819,-105 819,-99 825,-93 831,-93 831,-93 902,-93 902,-93 908,-93 914,-99 914,-105 914,-105 914,-117 914,-117 914,-123 908,-129 902,-129"/>
<text text-anchor="middle" x="866.5" y="-108.5" font-family="sans" font-size="10.00">VariantFiltration</text>
</g>
<!-- genotype_gvcfs&#45;&gt;filter -->
<g id="edge8" class="edge">
<title>genotype_gvcfs&#45;&gt;filter</title>
<path fill="none" stroke="grey" stroke-width="2" d="M783.12,-111C791.35,-111 799.98,-111 808.44,-111"/>
<polygon fill="grey" stroke="grey" stroke-width="2" points="808.63,-114.5 818.63,-111 808.63,-107.5 808.63,-114.5"/>
</g>
<!-- snpeff -->
<g id="node10" class="node">
<title>snpeff</title>
<path fill="none" stroke="#56d892" stroke-width="2" d="M995,-183C995,-183 965,-183 965,-183 959,-183 953,-177 953,-171 953,-171 953,-159 953,-159 953,-153 959,-147 965,-147 965,-147 995,-147 995,-147 1001,-147 1007,-153 1007,-159 1007,-159 1007,-171 1007,-171 1007,-177 1001,-183 995,-183"/>
<text text-anchor="middle" x="980" y="-162.5" font-family="sans" font-size="10.00">SnpEff</text>
</g>
<!-- filter&#45;&gt;snpeff -->
<g id="edge9" class="edge">
<title>filter&#45;&gt;snpeff</title>
<path fill="none" stroke="grey" stroke-width="2" d="M904.94,-129.13C917.44,-135.19 931.33,-141.91 943.66,-147.89"/>
<polygon fill="grey" stroke="grey" stroke-width="2" points="942.22,-151.08 952.75,-152.29 945.27,-144.78 942.22,-151.08"/>
</g>
<!-- vep -->
<g id="node11" class="node">
<title>vep</title>
<path fill="none" stroke="#56d892" stroke-width="2" d="M995,-129C995,-129 965,-129 965,-129 959,-129 953,-123 953,-117 953,-117 953,-105 953,-105 953,-99 959,-93 965,-93 965,-93 995,-93 995,-93 1001,-93 1007,-99 1007,-105 1007,-105 1007,-117 1007,-117 1007,-123 1001,-129 995,-129"/>
<text text-anchor="middle" x="980" y="-108.5" font-family="sans" font-size="10.00">VEP</text>
</g>
<!-- filter&#45;&gt;vep -->
<g id="edge10" class="edge">
<title>filter&#45;&gt;vep</title>
<path fill="none" stroke="grey" stroke-width="2" d="M914.14,-111C923.66,-111 933.55,-111 942.65,-111"/>
<polygon fill="grey" stroke="grey" stroke-width="2" points="942.9,-114.5 952.9,-111 942.9,-107.5 942.9,-114.5"/>
</g>
<!-- somalier -->
<g id="node12" class="node">
<title>somalier</title>
<path fill="none" stroke="#56d892" stroke-width="2" d="M998,-54C998,-54 962,-54 962,-54 956,-54 950,-48 950,-42 950,-42 950,-30 950,-30 950,-24 956,-18 962,-18 962,-18 998,-18 998,-18 1004,-18 1010,-24 1010,-30 1010,-30 1010,-42 1010,-42 1010,-48 1004,-54 998,-54"/>
<text text-anchor="middle" x="980" y="-33.5" font-family="sans" font-size="10.00">Somalier</text>
</g>
<!-- filter&#45;&gt;somalier -->
<g id="edge11" class="edge">
<title>filter&#45;&gt;somalier</title>
<path fill="none" stroke="grey" stroke-width="2" d="M894.49,-92.84C909.17,-82.97 927.52,-70.63 943.37,-59.97"/>
<polygon fill="grey" stroke="grey" stroke-width="2" points="945.53,-62.73 951.87,-54.25 941.62,-56.93 945.53,-62.73"/>
</g>
</g>
</svg>
